# xmcd
#
# Track frame offsets:
#	150
#	20554
#	35183
#	52821
#	67914
#	88570
#	105535
#	120213
#	137464
#	152240
#	171073
#	188099
#	201135
#	219458
#	241859
#
# Disc length: 3437 seconds
#
# Revision: 0
# Processed by: cddbd v1.5.2PL0 Copyright (c) Steve Scherf et al.
# Submitted via: audiograbber 1.83.01
#
DISCID=be0d6b0f
DTITLE=Chartbuster Karaoke - Hot Country Hits Collection Vol 10 CB60011
DYEAR=1997
DGENRE=Karaoke Country
TTITLE0=Brooks and Dunn - Neon Moon
TTITLE1=Tracy Lawrence - Alibis
TTITLE2=K T Oslin - Come Next Monday
TTITLE3=Diamond Rio - Meet In The Middle
TTITLE4=Garth Brooks - Shameless
TTITLE5=Patty Loveless - Blame It On Your Heart
TTITLE6=George Strait - Love Without End Amen
TTITLE7=Alabama - Jukebox In My Mind
TTITLE8=Judds, The - Mama He's Crazy
TTITLE9=John Michael Montgomery - I Love The Way You Love Me
TTITLE10=Reba McEntire - For My Broken Heart
TTITLE11=Faith Hill - Wild ONe
TTITLE12=Collin Raye - Love Me
TTITLE13=Reba McEntire - Fancy
TTITLE14=Alabama - Forty Hour Week
EXTD=Chartbuster
EXTT0=
EXTT1=
EXTT2=
EXTT3=
EXTT4=
EXTT5=
EXTT6=
EXTT7=
EXTT8=
EXTT9=
EXTT10=
EXTT11=
EXTT12=
EXTT13=
EXTT14=
PLAYORDER=
